<svg width="24" height="24" viewBox="0 0 24 24" fill="none" xmlns="http://www.w3.org/2000/svg">
<path d="M10.5429 0.951432C10.4395 0.889669 10.3213 0.857056 10.2009 0.857056C10.0804 0.857056 9.96225 0.889669 9.85886 0.951432C9.77337 1.01917 9.71568 1.11591 9.69673 1.22332C9.67777 1.33074 9.69886 1.44138 9.75601 1.53429C11.8594 5.17372 12.3034 10.1331 9.43029 12.8674C8.32593 11.9389 7.44918 10.7695 6.86743 9.44915C5.80536 10.039 4.9251 10.9084 4.32219 11.9631C3.71929 13.0178 3.41676 14.2175 3.44743 15.432C3.49091 16.5028 3.74811 17.554 4.20389 18.5239C4.65967 19.4938 5.30483 20.3628 6.1014 21.0797C6.89798 21.7965 7.82989 22.3468 8.8423 22.6982C9.8547 23.0496 10.9272 23.195 11.9966 23.1257C17.5011 23.1257 20.3571 19.7074 20.544 15.432C20.7669 10.3029 17.1257 3.99429 10.5429 0.951432Z" stroke="#222222" stroke-width="1.71429" stroke-linecap="round" stroke-linejoin="round"/>
</svg>
