<svg width="24" height="24" viewBox="0 0 24 24" fill="none" xmlns="http://www.w3.org/2000/svg">
<g clip-path="url(#clip0_1_288)">
<g filter="url(#filter0_d_1_288)">
<path d="M20.517 14.154L14.155 20.516C13.9916 20.6773 13.808 20.7983 13.604 20.879C13.4 20.9597 13.1966 21 12.994 21C12.7913 21 12.5896 20.9597 12.389 20.879C12.1883 20.7983 12.0063 20.6773 11.843 20.516L3.48095 12.17C3.32295 12.0253 3.20362 11.8527 3.12295 11.652C3.04229 11.452 3.00195 11.2413 3.00195 11.02V4.634C3.00195 4.18467 3.15929 3.8 3.47395 3.48C3.78862 3.16 4.17595 3 4.63595 3H11.022C11.238 3 11.4476 3.04367 11.651 3.131C11.8543 3.21833 12.03 3.33633 12.178 3.485L20.517 11.829C20.6836 11.9923 20.805 12.176 20.881 12.38C20.957 12.584 20.995 12.7897 20.995 12.997C20.995 13.2043 20.957 13.4077 20.881 13.607C20.805 13.8063 20.6836 13.9887 20.517 14.154ZM13.442 19.808L19.803 13.446C19.931 13.318 19.995 13.1673 19.995 12.994C19.995 12.8207 19.931 12.67 19.803 12.542L11.267 4.02H4.63595C4.45595 4.02 4.30529 4.07767 4.18395 4.193C4.06195 4.30833 4.00095 4.45567 4.00095 4.635V11.015C4.00095 11.0923 4.01395 11.1693 4.03995 11.246C4.06529 11.3233 4.10995 11.394 4.17395 11.458L12.538 19.808C12.666 19.936 12.8163 20 12.989 20C13.1623 20 13.3133 19.936 13.442 19.808ZM6.55095 7.558C6.83162 7.558 7.06962 7.46067 7.26495 7.266C7.46029 7.07133 7.55829 6.83533 7.55895 6.558C7.55895 6.27467 7.46162 6.034 7.26695 5.836C7.07229 5.638 6.83629 5.53867 6.55895 5.538C6.27562 5.538 6.03495 5.63633 5.83695 5.833C5.63895 6.02967 5.53995 6.26867 5.53995 6.55C5.53995 6.83133 5.63829 7.06933 5.83495 7.264C6.03162 7.45867 6.27029 7.55667 6.55095 7.558ZM13.586 16.319L16.04 13.769C16.1846 13.6243 16.295 13.4557 16.371 13.263C16.4476 13.071 16.486 12.859 16.486 12.627C16.486 12.201 16.3346 11.8297 16.032 11.513C15.7293 11.1963 15.364 11.038 14.936 11.038C14.61 11.038 14.2886 11.1233 13.972 11.294C13.6553 11.4647 13.3316 11.7667 13.001 12.2C12.6543 11.7593 12.327 11.4557 12.019 11.289C11.711 11.1223 11.3933 11.039 11.066 11.039C10.638 11.039 10.2726 11.1973 9.96995 11.514C9.66795 11.8307 9.51695 12.2017 9.51695 12.627C9.51695 12.859 9.55495 13.0713 9.63095 13.264C9.70695 13.456 9.81729 13.6243 9.96195 13.769L12.416 16.319C12.578 16.481 12.773 16.562 13.001 16.562C13.229 16.562 13.424 16.481 13.586 16.319Z" fill="#222222"/>
</g>
</g>
<defs>
<filter id="filter0_d_1_288" x="-0.998047" y="3" width="25.993" height="26" filterUnits="userSpaceOnUse" color-interpolation-filters="sRGB">
<feFlood flood-opacity="0" result="BackgroundImageFix"/>
<feColorMatrix in="SourceAlpha" type="matrix" values="0 0 0 0 0 0 0 0 0 0 0 0 0 0 0 0 0 0 127 0" result="hardAlpha"/>
<feOffset dy="4"/>
<feGaussianBlur stdDeviation="2"/>
<feComposite in2="hardAlpha" operator="out"/>
<feColorMatrix type="matrix" values="0 0 0 0 0 0 0 0 0 0 0 0 0 0 0 0 0 0 0.25 0"/>
<feBlend mode="normal" in2="BackgroundImageFix" result="effect1_dropShadow_1_288"/>
<feBlend mode="normal" in="SourceGraphic" in2="effect1_dropShadow_1_288" result="shape"/>
</filter>
<clipPath id="clip0_1_288">
<rect width="24" height="24" fill="white"/>
</clipPath>
</defs>
</svg>
