<svg width="24" height="24" viewBox="0 0 24 24" fill="none" xmlns="http://www.w3.org/2000/svg">
<path d="M3.53125 11.47V13.588C3.53112 14.1442 3.64056 14.695 3.85333 15.209C4.0661 15.7229 4.37803 16.1899 4.7713 16.5832C5.16457 16.9766 5.63148 17.2886 6.14535 17.5015C6.65923 17.7144 7.21002 17.824 7.76625 17.824H20.4712M3.53125 6.17599H16.2363C16.7926 6.17586 17.3435 6.28534 17.8575 6.49817C18.3714 6.71101 18.8385 7.02302 19.2318 7.4164C19.6252 7.80977 19.9372 8.2768 20.1501 8.79079C20.3629 9.30479 20.4724 9.85568 20.4722 10.412V12.529" stroke="#222222" stroke-width="1.5" stroke-linecap="round" stroke-linejoin="round"/>
<path d="M17.2943 14.647L20.4713 17.823L17.2943 21M6.7063 9.353L3.5293 6.176L6.7063 3" stroke="#222222" stroke-width="1.5" stroke-linecap="round" stroke-linejoin="round"/>
</svg>
